<svg id="visual" viewBox="0 0 900 600" width="900" height="600" xmlns="http://www.w3.org/2000/svg" xmlns:xlink="http://www.w3.org/1999/xlink" version="1.1">
    <g transform="translate(917.3039690608064 590.9839752259472)">
        <path d="M354.1 -484.2C455.1 -414 530.5 -305.4 561.8 -187.6C593.1 -69.7 580.5 57.4 539.2 172.4C498 287.5 428.3 390.5 333.7 466.9C239 543.3 119.5 593.2 -3.1 597.5C-125.8 601.8 -251.6 560.6 -358.6 488.2C-465.6 415.8 -553.8 312.2 -591.7 192.9C-629.6 73.5 -617.2 -61.5 -568.1 -175.9C-519 -290.3 -433.1 -384.1 -332.3 -454.3C-231.4 -524.6 -115.7 -571.3 5.4 -578.7C126.6 -586.2 253.1 -554.4 354.1 -484.2" fill="#fefefe"></path>
    </g>
</svg>