<svg version="1.1" id="Capa_1" xmlns="http://www.w3.org/2000/svg" xmlns:xlink="http://www.w3.org/1999/xlink" x="0px" y="0px" viewBox="0 0 512 512" style="enable-background:new 0 0 512 512;" xml:space="preserve">
<g id="XMLID_603_">
<path id="XMLID_604_" style="fill: rgb(201, 201, 201);" d="M485.147,229.147c0,53.967-18.658,103.582-49.874,142.735
		C393.29,424.54,328.591,458.293,256,458.293c-72.117,0-136.444-33.313-178.449-85.386c-31.712-39.311-50.697-89.321-50.697-143.761
		C26.853,102.59,129.443,0,256,0S485.147,102.59,485.147,229.147z"></path>
<path id="XMLID_605_" style="fill: rgb(0, 0, 0);" d="M435.272,371.881C393.29,424.54,328.591,458.293,256,458.293
		c-72.117,0-136.444-33.313-178.449-85.386c27.316-49.762,30.36-89.941,30.687-99.557v-83.796
		c0-81.609,66.39-147.999,147.999-147.999c81.609,0,147.999,66.39,147.999,147.999v83.368
		C405.634,287.07,411.496,326.528,435.272,371.881z"></path>
<path id="XMLID_606_" style="fill:#EBEEF2;" d="M452.388,423.634c-49.64-64.549-59.723-129.248-61.681-150.063v-84.02
		c0-74.265-60.204-134.469-134.469-134.469h0c-74.265,0-134.469,60.204-134.469,134.469v84.02
		c-0.468,14.9-6.209,79.529-61.544,149.835c-10.052,12.772-0.922,31.515,15.331,31.515h50.089c21.349,0,41.519,9.203,56.015,24.875
		C199.976,499.601,226.182,512,255.285,512h1.492c29.103,0,55.309-12.399,73.626-32.203c14.496-15.673,34.667-24.875,56.015-24.875
		h50.46C452.998,454.922,462.215,436.413,452.388,423.634z"></path>
<path id="XMLID_607_" style="fill:#D3D8DF;" d="M436.881,454.92h-25.336c16.117,0,25.336-18.505,15.504-31.29
		c-49.639-64.548-59.725-129.243-61.674-150.057v-84.018c0-69.996-53.488-127.499-121.808-133.881c4.171-0.4,8.4-0.594,12.668-0.594
		c74.264,0,134.476,60.212,134.476,134.476v84.018c1.949,20.814,12.035,85.509,61.674,150.057
		C462.217,436.415,452.999,454.92,436.881,454.92z"></path>
<g id="XMLID_608_">
<path id="XMLID_609_" style="fill: rgb(0, 0, 0);" d="M222.552,206.209c-4.268,0-7.726-3.459-7.726-7.726v-9.252
			c0-4.267,3.459-7.726,7.726-7.726s7.726,3.459,7.726,7.726v9.252C230.279,202.749,226.82,206.209,222.552,206.209z"></path>
<path id="XMLID_610_" style="fill: rgb(0, 0, 0);" d="M289.51,206.209c-4.268,0-7.726-3.459-7.726-7.726v-9.252
			c0-4.267,3.459-7.726,7.726-7.726c4.268,0,7.726,3.459,7.726,7.726v9.252C297.237,202.749,293.778,206.209,289.51,206.209z"></path>
</g>
</g>
<g>
</g>
<g>
</g>
<g>
</g>
<g>
</g>
<g>
</g>
<g>
</g>
<g>
</g>
<g>
</g>
<g>
</g>
<g>
</g>
<g>
</g>
<g>
</g>
<g>
</g>
<g>
</g>
<g>
</g>
</svg>