<?xml version="1.0" encoding="utf-8"?>
<!-- Generator: Adobe Illustrator 25.2.3, SVG Export Plug-In . SVG Version: 6.00 Build 0)  -->
<svg version="1.1" id="Two_Tone" xmlns="http://www.w3.org/2000/svg" xmlns:xlink="http://www.w3.org/1999/xlink" x="0px" y="0px"
	 viewBox="0 0 512 512" enable-background="new 0 0 512 512" xml:space="preserve">
<g>
	<path fill="#5A189A" d="M263.832,379.286l-7.84,25.44l-7.84-25.44c2.64,0.08,5.2,0.08,7.84,0.08
		C258.632,379.366,261.192,379.366,263.832,379.286z"/>
	<path fill="#7B2CBF" d="M242.872,136.246c0.96,2.4,0.24,5.04-1.52,6.8c-16.32,15.44-26.4,7.52-31.52-0.24
		c-3.2-4.8-2.24-11.44,1.76-15.36C229.912,109.606,239.592,127.766,242.872,136.246z"/>
	<path fill="#7B2CBF" d="M302.072,142.966c-5.12,7.68-15.2,15.68-31.44,0.16c-1.84-1.68-2.48-4.32-1.6-6.72
		c3.28-8.48,13.04-26.64,31.28-8.88C304.392,131.526,305.272,138.166,302.072,142.966z"/>
	<path fill="#5A189A" d="M318.232,280.006c-6,0-16.96-5.04-22.24-8v-40c0-4.4-3.6-8-8-8h-32c17.6,0,33.6-7.2,45.2-18.8
		c11.6-11.6,18.8-27.6,18.8-45.2v-56l17.6,176.08C327.352,280.006,318.232,280.006,318.232,280.006z"/>
	<path fill="#C8ADEA" d="M319.992,96.006v8c0-8.8-28.64-24-64-24s-64,15.2-64,24v-8c0-26.48,24.24-56,64-56
		S319.992,69.526,319.992,96.006z"/>
	<path fill="#9B61D8" d="M319.992,96.006v8c0-1.28-0.56-2.64-1.68-4.08c-6-22.64-28.56-43.92-62.32-43.92s-56.32,21.28-62.32,43.92
		c-1.12,1.44-1.68,2.8-1.68,4.08v-8c0-26.48,24.24-56,64-56S319.992,69.526,319.992,96.006z"/>
	<path fill="#9B61D8" d="M211.592,127.446c-4,3.92-4.96,10.56-1.76,15.36c5.12,7.76,15.2,15.68,31.52,0.24
		c1.76-1.76,2.48-4.4,1.52-6.8C239.592,127.766,229.912,109.606,211.592,127.446z M319.992,104.006v56c0,17.6-7.2,33.6-18.8,45.2
		c-11.6,11.6-27.6,18.8-45.2,18.8s-33.6-7.2-45.2-18.8c-11.6-11.6-18.8-27.6-18.8-45.2v-56c0-8.8,28.64-24,64-24
		S319.992,95.206,319.992,104.006z M302.072,142.966c3.2-4.8,2.32-11.44-1.76-15.44c-18.24-17.76-28,0.4-31.28,8.88
		c-0.88,2.4-0.24,5.04,1.6,6.72C286.872,158.646,296.952,150.646,302.072,142.966z"/>
	<path fill="#7B2CBF" d="M319.992,104.006v56c0,17.6-7.2,33.6-18.8,45.2c-11.6,11.6-27.6,18.8-45.2,18.8s-33.6-7.2-45.2-18.8
		c-2.72-2.72-5.12-5.6-7.28-8.72c10.32,7.28,22.96,11.52,36.48,11.52c17.6,0,33.6-7.2,45.2-18.8c11.6-11.6,18.8-27.6,18.8-45.2v-54
		C313.912,94.566,319.992,99.926,319.992,104.006z"/>
	<path fill="#5A189A" d="M215.992,232.006v40c-5.28,2.96-16.24,8-22.24,8c0,0-9.2,0-19.36,0.08l17.6-176.08v56
		c0,17.6,7.2,33.6,18.8,45.2c11.6,11.6,27.6,18.8,45.2,18.8h-32C219.592,224.006,215.992,227.606,215.992,232.006z"/>
	<path fill="#C8ADEA" d="M215.992,272.006l32.16,103.92c-29.04-0.4-58.24-2.96-82.64-7.28l8.88-88.56
		c10.16-0.08,19.36-0.08,19.36-0.08C199.752,280.006,210.712,274.966,215.992,272.006z"/>
	<path fill="#9B61D8" d="M189.832,280.006l-7.92,91.12c-5.68-0.72-11.12-1.52-16.4-2.48l8.88-88.56
		C180.472,280.006,186.232,280.006,189.832,280.006z"/>
	<path fill="#C8ADEA" d="M295.992,232.006v40l-32.16,103.92c-2.64,0.08-5.2,0.08-7.84,0.08c-2.64,0-5.2,0-7.84-0.08l-32.16-103.92
		v-40c0-4.4,3.6-8,8-8h32h32C292.392,224.006,295.992,227.606,295.992,232.006z"/>
	<path fill="#C8ADEA" d="M337.592,280.086l8.88,88.56c-24.4,4.32-53.6,6.88-82.64,7.28l32.16-103.92c5.28,2.96,16.24,8,22.24,8
		C318.232,280.006,327.352,280.006,337.592,280.086z"/>
	<path fill="#9B61D8" d="M346.472,368.646c-5.28,0.96-10.72,1.76-16.4,2.48l-7.92-91.12c3.6,0,9.36,0,15.44,0.08L346.472,368.646z"
		/>
	<path fill="#5A189A" d="M255.992,401.366l7.84-25.44c29.04-0.4,58.24-2.96,82.64-7.28l13.52,135.36h-208l13.52-135.36
		c24.4,4.32,53.6,6.88,82.64,7.28L255.992,401.366z"/>
	<path fill="#3C096C" d="M181.272,371.046l-13.28,132.96h-16l13.52-135.36C170.552,369.526,175.832,370.326,181.272,371.046z"/>
	<path fill="#7B2CBF" d="M495.112,487.526l8.88,16.48h-144l-13.52-135.36l-8.88-88.56l-17.6-176.08v-8c0-26.48-24.24-56-64-56
		s-64,29.52-64,56v8l-17.6,176.08l-8.88,88.56l-13.52,135.36h-144l8.88-16.48c62.88-116,103.92-242.64,121.2-373.44l0.08-0.64
		c5.28-40.16,29.36-76.4,66-93.76c15.84-7.52,33.52-11.68,51.84-11.68s36,4.16,51.84,11.68c36.64,17.36,60.72,53.6,66,93.76
		l0.08,0.64C391.192,244.886,432.232,371.526,495.112,487.526z"/>
	<path fill="#3C096C" d="M346.472,368.646c-5.04,0.88-10.32,1.68-15.76,2.4v0c1.098,10.995-2.921,21.809-10.676,29.68
		c-42.22,42.853-91.734,78.207-146.775,103.28h186.731L346.472,368.646z"/>
	<path fill="#5A189A" d="M495.112,487.526c-35.865-66.163-64.594-135.796-85.893-207.679c-0.004,0.009-0.01,0.017-0.015,0.025
		c-16.046-54.153-27.868-109.583-35.292-165.786l-0.08-0.64c-5.28-40.16-29.36-76.4-66-93.76c-15.84-7.52-33.52-11.68-51.84-11.68
		c-4.08,0-8.08,0.24-12,0.64c14,1.36,27.52,5.2,39.84,11.04c36.64,17.36,60.72,53.6,66,93.76l0.08,0.64
		c6.016,45.536,14.935,90.562,26.643,134.812c10.856,41.028,1.468,84.865-25.518,117.62c-1.412,1.713-2.834,3.417-4.267,5.112
		l13.222,132.376h144L495.112,487.526z"/>
	<path fill="#27044F" d="M308.765,147.366c5.219-7.859,3.992-18.836-2.867-25.531c-8.141-7.953-16.266-11.102-24.234-9.383
		c-10.75,2.336-16.852,12.75-20.078,21.07c-2.051,5.281-0.652,11.477,3.5,15.43c7.734,7.344,15.391,11.055,22.789,11.055
		c0.828,0,1.656-0.047,2.477-0.141C297.508,159.053,303.875,154.733,308.765,147.366z M295.437,138.514
		c-1.531,2.305-3.969,5.125-6.883,5.453c-3.047,0.32-7.062-1.734-11.586-5.812c2.367-5.594,5.477-9.5,8.094-10.07
		c2.25-0.469,5.773,1.414,9.656,5.203C296.101,134.631,296.429,137.022,295.437,138.514z"/>
	<path fill="#27044F" d="M275.406,180.342c-19.195-9.07-38.043-0.375-38.828,0c-3.98,1.875-5.672,6.609-3.816,10.594
		c1.852,3.992,6.605,5.719,10.602,3.898c0.125-0.055,12.961-5.797,25.215-0.023c1.102,0.523,2.266,0.766,3.406,0.766
		c3,0,5.875-1.695,7.242-4.586C281.109,186.998,279.406,182.225,275.406,180.342z"/>
	<path fill="#27044F" d="M510.867,508.1c1.437-2.422,1.5-5.422,0.156-7.906l-8.914-16.453
		c-62.625-115.617-103.078-240.344-120.312-371.32c-5.836-44.383-32.211-81.75-70.539-99.969
		c-34.742-16.516-75.762-16.516-110.527,0c-38.328,18.219-64.703,55.586-70.621,100.57C112.953,243.397,72.5,368.123,9.871,483.741
		l-8.914,16.453c-1.344,2.484-1.281,5.484,0.16,7.906c1.445,2.422,4.055,3.906,6.875,3.906h144h208h144
		C506.812,512.006,509.422,510.522,510.867,508.1z M255.992,368.006c-0.646,0-1.305-0.023-1.953-0.025l-30.047-97.184v-38.791h64
		v38.803l-30.041,97.177C257.298,367.989,256.644,368.006,255.992,368.006z M297.197,218.963
		c10.002-7.013,18.105-16.505,23.496-27.573l8.064,80.645l-10.507-0.03c-2.508,0-8.539-2.102-14.258-4.859v-35.141
		C303.992,226.617,301.293,221.864,297.197,218.963z M199.992,160.006v-22.317c0.22,3.354,1.248,6.655,3.16,9.536
		c4.891,7.375,11.262,11.703,18.418,12.508c0.82,0.094,1.645,0.141,2.477,0.141c7.398,0,15.055-3.711,22.789-11.055
		c4.211-4,5.586-10.055,3.508-15.43c-3.227-8.32-9.328-18.734-20.078-21.07c-7.941-1.719-16.082,1.438-24.234,9.383
		c-4.016,3.913-6.043,9.296-6.039,14.662v-31.556c3.136-5.139,25.51-16.801,56-16.801c30.459,0,52.828,11.645,56,16.786v55.214
		c0,30.875-25.125,56-56,56C225.113,216.006,199.992,190.881,199.992,160.006z M217.203,133.155
		c3.484-3.398,6.676-5.273,8.922-5.273c0.262,0,0.508,0.023,0.742,0.07c2.613,0.57,5.727,4.469,8.09,10.063
		c-4.531,4.109-8.664,6.188-11.586,5.82c-2.918-0.328-5.355-3.148-6.887-5.461C215.496,136.889,215.824,134.498,217.203,133.155z
		 M255.992,72.006c-20.261,0-40.297,4.935-54.067,11.957c5.938-18.937,25.481-35.957,54.067-35.957
		c28.661,0,48.231,17.114,54.111,36.114C296.325,76.949,276.271,72.006,255.992,72.006z M191.27,191.346
		c5.391,11.086,13.5,20.595,23.516,27.616c-4.097,2.901-6.794,7.655-6.794,13.044v35.141c-5.723,2.758-11.754,4.859-14.277,4.859
		l-10.504,0.03L191.27,191.346z M300.874,283.29c5.347,2.331,12.066,4.716,17.36,4.716l12.123,0.034l7.395,73.953
		c-19.268,3.018-40.917,4.962-62.958,5.678L300.874,283.29z M367.232,496.006l-39.24-392v-8c0-30.781-27.531-64-72-64
		c-44.473,0-72,33.219-72,64v7.594L151.73,426.209c-0.438,4.398,2.77,8.32,7.164,8.758c4.484,0.398,8.316-2.766,8.758-7.164
		l13.96-139.763l12.114-0.034c5.304,0,12.03-2.386,17.38-4.716l26.083,84.366c-13.18-0.433-26.394-1.274-38.972-2.564
		c-4.488-0.414-8.324,2.758-8.773,7.148c-0.453,4.391,2.746,8.32,7.141,8.773c14.703,1.501,30.235,2.45,45.604,2.814l5.806,18.778
		l0,5.267h-7.699c-4.418,0-8,3.578-8,8s3.582,8,8,8h7.697l-0.002,24.133c0,4.414,3.582,8,8,8s8-3.578,8-8l0.004-24.133h8.777
		c4.422,0,8-3.578,8-8s-3.578-8-8-8h-8.774l0.001-5.279l5.8-18.765c24.226-0.566,48.249-2.6,69.546-5.891l11.806,118.067H160.833
		l3.448-34.477c0.438-4.398-2.77-8.32-7.164-8.758c-4.367-0.344-8.316,2.773-8.758,7.164l-3.605,36.07H21.426l2.516-4.641
		C87.5,374.022,128.558,247.428,146.047,114.514c5.133-38.984,28.145-71.734,61.551-87.609c30.434-14.469,66.363-14.469,96.793,0
		c33.406,15.875,56.414,48.625,61.625,88.211c17.406,132.312,58.469,258.906,122.031,376.25l2.516,4.641H367.232z"/>
</g>
</svg>
