<svg id="Layer_1" data-name="Layer 1" xmlns="http://www.w3.org/2000/svg" viewBox="0 0 128 128"><defs><style>.cls-1{fill:#2d3e50;}.cls-2{fill:#1d75b8;}</style></defs><title>a</title><path class="cls-1" d="M48.68274,126.01333a5.27506,5.27506,0,0,1-5.25821-4.90622c-.13936-1.99374-.30673-4.5431-.47195-7.04578-.13433-2.04869-.28662-4.36424-.41232-6.182q-1.91256.00539-3.83231.00575c-.45183.00108-.931.01508-1.42158.02873-3.17432.08836-7.52311.20939-10.765-2.75984a11.37793,11.37793,0,0,1-3.35606-7.383c-.12068-.80669-2.04222-13.47631-3.26052-21.50441l-.097-.042c-.76574-.33007-1.53005-.66015-2.28933-1.0168a26.85271,26.85271,0,0,1-3.02778-1.59362c-3.68218-2.28825-3.66925-5.18063-3.00838-7.20309a10.91426,10.91426,0,0,1,1.98332-3.50116c.47985-.58724,1.63421-1.7179,4.65337-4.62068.84117-.80848,1.60619-1.5437,2.07527-2.00595A9.66143,9.66143,0,0,0,22.891,52.59277c-.01293-2.07455-.01293-3.39592-.01293-3.61969a46.55223,46.55223,0,0,1,4.1843-19.40436A46.99546,46.99546,0,0,1,113.0232,67.57147a80.68016,80.68016,0,0,0-6.863,32.06068v9.2094a7.14641,7.14641,0,0,1-5.73733,6.98257L49.71642,125.90953A5.186,5.186,0,0,1,48.68274,126.01333Zm-.40011-7.31839-.01652.00323Zm-2.35111-18.18032h2.80438l.742,2.70453c.15229.55455.176.63968.81459,10.35945.10416,1.58393.20975,3.18689.30888,4.65516l48.20309-9.5876v-9.014a87.99387,87.99387,0,0,1,7.46565-34.97676A39.64025,39.64025,0,0,0,70.51434,9.34727h0A39.60485,39.60485,0,0,0,30.23376,48.97308c0,.23382,0,1.68162.01509,3.94042l.00216.30062-.04741.297c-.53157,3.3715-2.74763,5.94134-4.84516,8.0105-.48559.47841-1.27432,1.23661-2.14135,2.07024-1.367,1.31419-3.6556,3.51373-4.06146,3.97921q-.07112.08836-.13577.17384c.54522.30026,1.10049.56317,1.59686.79124.71762.33726,1.41009.635,2.10328.93383l.41951.18066c.074.03233.15444.06142.23705.09267a7.11834,7.11834,0,0,1,1.96967,1.04158l.31679.25,1.09043,1.335.15085.99489c1.05811,6.97395,3.52343,23.218,3.55288,23.43277l.01221.09949a4.62064,4.62064,0,0,0,1.015,2.82808c1.05164.96257,3.466.8954,5.59654.83578.55455-.0158,1.09761-.03053,1.61841-.03161,2.26275,0,4.5097-.00718,6.76383-.01473Z" id="id_101" style="fill: rgb(237, 237, 237);"></path><path class="cls-2" d="M72.78747,53.50425a2.56668,2.56668,0,0,1-.97833,2.067l-.24271.19126v3.24386a1.3397,1.3397,0,0,1-.70617,1.25785,1.51875,1.51875,0,0,1-1.49324-.02941,1.44654,1.44654,0,0,1-.69144-1.23576V55.76983l-.07354-.06622-.15449-.11767a2.59612,2.59612,0,0,1-.72821-3.12619,2.62241,2.62241,0,0,1,2.88348-1.52264h.00732A2.68024,2.68024,0,0,1,72.78747,53.50425Z" id="id_102" style="fill: rgb(78, 70, 87);"></path><path class="cls-2" d="M76.39912,41.4335v3.95H63.84291v-3.95a6.27811,6.27811,0,1,1,12.55621,0Z" id="id_103" style="fill: rgb(123, 48, 199);"></path><path class="cls-2" d="M70.12469,18.91754A29.50757,29.50757,0,1,0,99.62856,48.42145,29.50749,29.50749,0,0,0,70.12469,18.91754ZM83.3503,61.63233a3.651,3.651,0,0,1-3.6411,3.64846H60.5475a3.66858,3.66858,0,0,1-3.65578-3.62637V49.03194a3.66211,3.66211,0,0,1,3.36894-3.64106V41.4335a9.86037,9.86037,0,1,1,19.72074,0v3.95a3.64962,3.64962,0,0,1,3.3689,3.63374Z" id="id_104" style="fill: rgb(116, 29, 204);"></path></svg>