<svg id="visual" viewBox="0 0 900 600" width="900" height="600" xmlns="http://www.w3.org/2000/svg" xmlns:xlink="http://www.w3.org/1999/xlink" version="1.1">
    <g transform="translate(900, 600)">
        <path d="M-513.8 0C-483.5 -44.2 -453.3 -88.4 -444.1 -144.3C-435 -200.2 -447 -267.7 -415.7 -302C-384.4 -336.3 -309.8 -337.2 -259.8 -357.6C-209.8 -378 -184.4 -417.7 -145.2 -447C-106 -476.3 -53 -495 0 -513.8L0 0Z" fill="#fefefe"></path>
    </g>
    <g transform="translate(0, 0)">
        <path d="M513.8 0C496.5 50.3 479.1 100.5 461.3 149.9C443.4 199.2 425.1 247.7 395.6 287.4C366.2 327.1 325.6 358 285.7 393.2C245.7 428.4 206.3 467.8 158.8 488.6C111.3 509.5 55.6 511.6 0 513.8L0 0Z" fill="#050505"></path>
    </g>
</svg>