<svg id="visual" viewBox="0 0 675 900" width="675" height="900" xmlns="http://www.w3.org/2000/svg" xmlns:xlink="http://www.w3.org/1999/xlink" version="1.1">
    <g transform="translate(675, 900)">
        <path d="M-534.4 0C-513.7 -43.6 -493.1 -87.3 -475.2 -127.3C-457.4 -167.4 -442.4 -203.9 -428.7 -247.5C-415 -291.1 -402.7 -341.8 -371.9 -371.9C-341.2 -402.1 -292.1 -411.8 -251.5 -435.6C-210.9 -459.4 -178.8 -497.4 -138.3 -516.2C-97.8 -535 -48.9 -534.7 0 -534.4L0 0Z" fill="#fefefe"></path>
    </g>
    <g transform="translate(0, 0)">
        <path d="M534.4 0C526.1 46.6 517.9 93.2 500.3 134.1C482.8 175 455.9 210.2 435.6 251.5C415.3 292.8 401.6 340.3 371.9 371.9C342.2 403.6 296.5 419.4 256 443.4C215.5 467.4 180.1 499.6 138.3 516.2C96.5 532.7 48.3 533.5 0 534.4L0 0Z" fill="#050505"></path>
    </g>
</svg>