<svg id="visual" viewBox="0 0 900 450" width="900" height="450" xmlns="http://www.w3.org/2000/svg" xmlns:xlink="http://www.w3.org/1999/xlink" version="1.1">
    <g transform="translate(900, 450)">
        <path d="M-427.5 0C-419.4 -45.2 -411.3 -90.4 -389.9 -126.7C-368.6 -163 -333.9 -190.5 -309 -224.5C-284.2 -258.6 -269 -299.2 -241.6 -332.5C-214.1 -365.9 -174.4 -392 -132.1 -406.6C-89.8 -421.2 -44.9 -424.4 0 -427.5L0 0Z" fill="#fefefe"></path>
    </g>
    <g transform="translate(0, 0)">
        <path d="M427.5 0C399.6 39.7 371.6 79.3 350.9 114C330.3 148.8 316.8 178.6 305 221.6C293.2 264.6 282.9 320.9 251.3 345.9C219.6 370.8 166.6 364.4 121.1 372.8C75.7 381.2 37.8 404.4 0 427.5L0 0Z" fill="#050505"></path>
    </g>
</svg>