<svg width="64" height="64" viewBox="0 0 64 64" fill="none" xmlns="http://www.w3.org/2000/svg">
<path d="M56.92 27.42C57.2 14 45.39 2.22001 32 2.50001C25.3973 2.5211 19.071 5.15337 14.4022 9.82221C9.73332 14.4911 7.10105 20.8173 7.07996 27.42V59.34C7.07996 59.7378 7.23799 60.1194 7.5193 60.4007C7.8006 60.682 8.18213 60.84 8.57996 60.84C11.53 60.84 12.77 57.84 13.87 55.24C18.22 44.09 18.14 61.43 24.2 60.84C27.15 60.84 28.39 57.84 29.49 55.24C30.22 53.47 31.05 51.48 32.01 51.48C32.97 51.48 33.79 53.48 34.52 55.24C35.62 57.87 36.86 60.84 39.81 60.84C42.76 60.84 44 57.84 45.1 55.24C45.83 53.47 46.67 51.48 47.62 51.48C48.57 51.48 49.4 53.48 50.13 55.24C51.23 57.87 52.47 60.84 55.42 60.84C55.8178 60.84 56.1993 60.682 56.4806 60.4007C56.7619 60.1194 56.92 59.7378 56.92 59.34V27.42ZM47.62 48.48C44.67 48.48 43.42 51.48 42.33 54.08C40.4 59.08 39.22 59.08 37.33 54.08C36.2 51.46 35 48.48 32 48.48C29 48.48 27.8 51.48 26.71 54.08C25.97 55.85 25.14 57.84 24.19 57.84C23.24 57.84 22.41 55.84 21.67 54.08C20.57 51.46 19.33 48.48 16.38 48.48C12.52 48.48 11.64 53.48 10.07 56.33V27.42C9.99996 8.00001 33.86 -1.83999 47.5 11.92C49.5412 13.9512 51.1595 16.3669 52.2615 19.0274C53.3634 21.6878 53.9271 24.5404 53.92 27.42V56.33C52.36 53.43 51.47 48.5 47.62 48.48V48.48Z" fill="#ffffff" id="id_101"></path>
<path d="M26.3799 24.6501C26.3799 12.8701 16.8299 12.8701 16.7899 24.6501C16.7499 36.4301 26.3399 36.4301 26.3799 24.6501ZM21.5899 30.5001C21.1399 30.5001 19.7899 28.4201 19.7899 24.6501C19.7899 20.8801 21.1399 18.8001 21.5899 18.8001C22.0399 18.8001 23.3799 20.6801 23.3799 24.6501C23.3799 28.6201 21.9399 30.5001 21.5899 30.5001Z" fill="#ffffff" id="id_102"></path>
<path d="M42.41 15.8C39.26 15.8 37.62 20.25 37.62 24.65C37.62 36.43 47.17 36.43 47.21 24.65C47.21 20.25 45.56 15.8 42.41 15.8ZM42.41 30.5C42.06 30.5 40.62 28.62 40.62 24.65C40.62 20.68 42.06 18.8 42.41 18.8C42.76 18.8 44.21 20.87 44.21 24.65C44.21 28.43 42.86 30.5 42.41 30.5Z" fill="#ffffff" id="id_103"></path>
<path d="M32 35.2C27.21 35.2 23.59 37.4599 23.59 40.4399C23.67 47.3799 40.33 47.3799 40.41 40.4399C40.41 37.4599 36.79 35.2 32 35.2ZM32 42.68C28.75 42.68 26.59 41.3399 26.59 40.4399C26.59 39.5399 28.75 38.2 32 38.2C35.25 38.2 37.41 39.5499 37.41 40.4399C37.41 41.3299 35.25 42.68 32 42.68V42.68Z" fill="#ffffff" id="id_104"></path>
</svg>